<svg xmlns="http://www.w3.org/2000/svg" version="1.1" xmlns:xlink="http://www.w3.org/1999/xlink" xmlns:svgjs="http://svgjs.dev/svgjs" width="1440" height="560" preserveAspectRatio="none" viewBox="0 0 1440 560"><g mask="url(&quot;#SvgjsMask1251&quot;)" fill="none"><rect width="1440" height="560" x="0" y="0" fill="url(&quot;#SvgjsLinearGradient1252&quot;)"></rect><path d="M 0,199 C 57.6,219 172.8,288.8 288,299 C 403.2,309.2 460.8,232.2 576,250 C 691.2,267.8 748.8,412 864,388 C 979.2,364 1036.8,136 1152,130 C 1267.2,124 1382.4,312.4 1440,358L1440 560L0 560z" fill="#184a7e"></path><path d="M 0,549 C 48,475.6 144,223 240,182 C 336,141 384,357.6 480,344 C 576,330.4 624,116.6 720,114 C 816,111.4 864,319.4 960,331 C 1056,342.6 1104,172.2 1200,172 C 1296,171.8 1392,298.4 1440,330L1440 560L0 560z" fill="#2264ab"></path></g><defs><mask id="SvgjsMask1251"><rect width="1440" height="560" fill="#ffffff"></rect></mask><linearGradient x1="15.28%" y1="-39.29%" x2="84.72%" y2="139.29%" gradientUnits="userSpaceOnUse" id="SvgjsLinearGradient1252"><stop stop-color="#0e2a47" offset="0"></stop><stop stop-color="rgba(128, 166, 214, 1)" offset="1"></stop></linearGradient></defs></svg>